<?xml version="1.0" standalone="no"?>
<svg viewBox="0 0 200 200" xmlns="http://www.w3.org/2000/svg">
  <path fill="#FFE3E7" d="M31.7,-52.3C40.9,-43.4,48.1,-34.3,54.3,-23.9C60.4,-13.5,65.6,-1.6,64.5,9.7C63.5,21,56.3,31.8,47.1,38.9C37.9,46,26.7,49.4,16.6,49C6.4,48.6,-2.7,44.4,-13.9,43.1C-25.1,41.7,-38.4,43.3,-49.4,38.5C-60.4,33.6,-69.1,22.4,-73.3,9.1C-77.5,-4.3,-77.3,-19.7,-71.5,-32.7C-65.7,-45.7,-54.3,-56.3,-41.5,-63.4C-28.6,-70.6,-14.3,-74.4,-1.5,-72.1C11.2,-69.7,22.5,-61.1,31.7,-52.3Z" transform="translate(100 100)" />
</svg>
