<?xml version='1.0' encoding='utf-8'?>
<svg xmlns:xlink="http://www.w3.org/1999/xlink" xmlns="http://www.w3.org/2000/svg" enable-background="new 0 0 37.75 41.9" version="1.1" viewBox="0 0 37.75 41.9"> <symbol id="k" viewBox="0 -5.383 19.4 5.383"> <path d="m17.9-0.9c0.167-0.567 0.667-1.333 1.5-2.3-0.467-0.5-1.033-0.933-1.7-1.3-0.367-0.2-0.95-0.35-1.75-0.45-1-0.133-1.6-0.233-1.8-0.3-0.433-0.133-1.017-0.167-1.75-0.1-0.867 0.1-1.517 0.167-1.95 0.2-0.2 0-0.75 0.167-1.65 0.5-0.833 0.267-1.966 0.433-3.4 0.5-1.333 0.066-2.283 0.233-2.85 0.5-0.033 0-0.367 0.25-1 0.75-0.4 0.333-0.917 0.467-1.55 0.4 0.533 0.967 1.017 1.717 1.45 2.25v0.25c10.8 0 16.283-0.3 16.45-0.9z" clip-rule="evenodd" fill="#333362" fill-rule="evenodd"/> </symbol> <symbol id="j" viewBox="0 -31.5 5.25 31.5"> <linearGradient id="ak" x1="4.2163" x2="2.4663" y1="-27.484" y2="-2.3844" gradientUnits="userSpaceOnUse"> <stop stop-color="#fff" offset="0"/> <stop offset="1"/> </linearGradient> <path d="m1.95-0.55c0.167-0.6 0.617-1.483 1.35-2.65 0.2-0.3 0.583-0.8 1.15-1.5 0.5-0.7 0.767-1.3 0.8-1.8l-0.3-21-0.4-0.85c-0.367-0.667-0.733-1.233-1.1-1.7-0.6-0.733-1.083-1.217-1.45-1.45 0.367 1.267 0.567 3.333 0.6 6.2 0.133 10.5 0.083 16.5-0.15 18-0.067 0.5-0.333 1.283-0.8 2.35-0.533 1.3-0.883 2.217-1.05 2.75-0.4 1.2-0.6 1.933-0.6 2.2l1.95-0.55z" clip-rule="evenodd" fill="url(#ak)" fill-rule="evenodd"/> </symbol> <symbol id="i" viewBox="0 -31.5 5.3 31.5"> <linearGradient id="s" x1="-543.15" x2="-517.99" y1="-15755" y2="-15755" gradientTransform="matrix(.0696 -.9976 .9976 .0696 15757 551.52)" gradientUnits="userSpaceOnUse"> <stop stop-color="#fff" offset="0"/> <stop offset="1"/> </linearGradient> <path d="m3.35-0.55 1.95 0.55c0-0.267-0.2-1-0.6-2.2-0.167-0.467-0.533-1.383-1.1-2.75-0.467-1.067-0.733-1.85-0.8-2.35-0.1-0.633-0.15-3.267-0.15-7.9-0.033-4.333-0.017-7.7 0.05-10.1 0.033-2.867 0.216-4.934 0.55-6.2-0.333 0.233-0.8 0.717-1.4 1.45-0.4 0.466-0.767 1.033-1.1 1.7l-0.4 0.85-0.35 21c0.033 0.5 0.3 1.1 0.8 1.8 0.6 0.7 0.983 1.2 1.15 1.5 0.733 1.167 1.2 2.05 1.4 2.65z" clip-rule="evenodd" fill="url(#s)" fill-rule="evenodd"/> </symbol> <symbol id="h" viewBox="0.028 -1.206 9.472 1.206"> <path d="m0.45-0.05c0.633-0.2 1.667-0.4 3.1-0.6 1.8-0.267 3.784-0.4 5.95-0.4-0.067-0.167-1.15-0.2-3.25-0.1-2.667 0.1-4.65 0.383-5.95 0.85-0.233 0.1-0.317 0.183-0.25 0.25s0.2 0.067 0.4 0z" clip-rule="evenodd" fill="#fff" fill-rule="evenodd"/> </symbol> <symbol id="a" viewBox="0 -3.708 17.7 3.708"> <path d="m17.3-0.95c0.167-0.267 0.3-0.5 0.4-0.7 0-0.067-0.083-0.184-0.25-0.35-0.133-0.2-0.367-0.333-0.7-0.4-0.467-0.1-0.9-0.184-1.3-0.25-1.8-0.167-2.917-0.35-3.35-0.55-0.6-0.267-1.25-0.433-1.95-0.5-0.167-0.033-0.467 0.034-0.9 0.2-0.533 0.2-0.983 0.367-1.35 0.5-1.067 0.3-2.083 0.25-3.05-0.15-0.6-0.233-1.083-0.1-1.45 0.4-0.066 0.1-0.4 0.2-1 0.3-0.6 0.067-1.017 0.217-1.25 0.45-0.767 0.633-1.15 1.3-1.15 2 11.233-0.1 17-0.417 17.3-0.95z" clip-rule="evenodd" fill="#3B4F6B" fill-rule="evenodd"/> </symbol> <linearGradient id="r" x2="24.175" y1="23.432" y2="23.432" gradientUnits="userSpaceOnUse"> <stop stop-color="#D4D5FF" offset="0"/> <stop stop-color="#2A2A54" offset="1"/> </linearGradient> <path d="m22.3 10.15c0.7 0.733 1.167 1.434 1.4 2.1 0.333 0.833 0.5 1.933 0.5 3.3 0 1.333-0.117 4.534-0.351 9.601-0.233 4.833-0.399 7.699-0.5 8.6-0.1 1.066-0.566 2.1-1.399 3.1-1.101 1.367-2.717 2.351-4.85 2.95-1.7 0.467-3.367 0.667-5 0.601-1.633 0.066-3.317-0.134-5.05-0.601-2.133-0.6-3.75-1.583-4.85-2.95-0.833-1-1.284-2.033-1.35-3.1-0.1-0.9-0.267-3.767-0.5-8.6-0.233-5.068-0.35-8.268-0.35-9.601 0-1.367 0.167-2.466 0.5-3.3 0.233-0.633 0.683-1.333 1.35-2.1 1.2-1.267 2.117-2.5 2.75-3.7l7.5 0.4 7.5-0.4c0.7 1.267 1.6 2.5 2.7 3.7z" clip-rule="evenodd" fill="url(#r)" fill-rule="evenodd"/> <linearGradient id="q" x1=".6499" x2="23.35" y1="23.256" y2="23.256" gradientUnits="userSpaceOnUse"> <stop stop-color="#6E73E6" offset="0"/> <stop stop-color="#373770" offset="1"/> </linearGradient> <path d="m21.6 10.35c0.634 0.733 1.084 1.417 1.351 2.05 0.267 0.8 0.399 1.867 0.399 3.2 0 1.233-0.116 4.35-0.35 9.35-0.2 4.434-0.333 7.217-0.4 8.35-0.1 1.066-0.533 2.066-1.3 3-1.066 1.334-2.6 2.283-4.6 2.851-1.6 0.466-3.167 0.666-4.7 0.6-1.533 0.066-3.1-0.134-4.7-0.6-2-0.567-3.517-1.517-4.55-2.851-0.8-0.967-1.233-1.967-1.3-3-0.067-0.833-0.217-3.616-0.45-8.35-0.233-4.9-0.35-8.017-0.35-9.35s0.15-2.4 0.45-3.2c0.233-0.633 0.667-1.316 1.3-2.05 1.2-1.3 2.05-2.5 2.55-3.6l7.05 0.4 7.05-0.4c0.667 1.233 1.516 2.433 2.55 3.6z" clip-rule="evenodd" fill="url(#q)" fill-rule="evenodd"/> <linearGradient id="p" x1="1.2373" x2="17.562" y1="26.631" y2="26.631" gradientUnits="userSpaceOnUse"> <stop stop-color="#DED2A9" offset="0"/> <stop stop-color="#9E936D" offset="1"/> </linearGradient> <path d="m1.2 19.4c1.133 0.5 3.333 0.833 6.6 1 4.167 0.233 7.417 0.184 9.75-0.15l-0.65 12.75c-0.467 0.2-1.183 0.384-2.15 0.55-1.9 0.3-4.05 0.384-6.45 0.25-1.966-0.1-3.633-0.467-5-1.1l-1.4-0.9-0.7-12.4z" clip-rule="evenodd" fill="url(#p)" fill-rule="evenodd"/> <linearGradient id="o" x1="2.375" x2="14.625" y1="30.6" y2="30.6" gradientUnits="userSpaceOnUse"> <stop stop-color="#45488F" offset="0"/> <stop stop-color="#313157" offset="1"/> </linearGradient> <path d="m11.1 31.05 1.1-0.05c0.833 0 1.533 0.066 2.1 0.2 0.6 0.133 0.333 0.35-0.8 0.649-1.1 0.267-1.967 0.4-2.6 0.4-0.2 0-1.433-0.116-3.7-0.35-0.9-0.134-0.684-0.334 0.65-0.601l1.8-0.149c0.267 0 0.15-0.117-0.35-0.351-0.5-0.2-0.917-0.316-1.25-0.35-1.133-0.267-2.033-0.417-2.7-0.45-0.567-0.033-1.283-0.267-2.15-0.7-0.167-0.066-0.034-0.116 0.4-0.149 0.433-0.034 0.917-0.034 1.45 0l0.25 0.051 1.05-0.25h1.05c0.767 0.033 1.267 0.2 1.5 0.5 0.433 0.467 1.167 1 2.2 1.6z" clip-rule="evenodd" fill="url(#o)" fill-rule="evenodd"/> <linearGradient id="n" x1="2.5" x2="13.7" y1="26.26" y2="26.26" gradientUnits="userSpaceOnUse"> <stop stop-color="#6E73E6" offset="0"/> <stop stop-color="#373770" offset="1"/> </linearGradient> <path d="m6.1 23.2c1.1 0.399 1.767 1.25 2 2.55 0.167 1.233-0.133 2.233-0.9 3-0.8 0.767-1.75 0.95-2.85 0.55-1.167-0.467-1.817-1.4-1.95-2.8-0.1-1.333 0.3-2.316 1.2-2.95 0.833-0.567 1.667-0.684 2.5-0.35z" clip-rule="evenodd" fill="url(#n)" fill-rule="evenodd"/> <linearGradient id="m" x1="2.5" x2="13.7" y1="28.049" y2="28.049" gradientUnits="userSpaceOnUse"> <stop stop-color="#6E73E6" offset="0"/> <stop stop-color="#373770" offset="1"/> </linearGradient> <path d="m11.05 24.7c1.767 0.467 2.7 1.517 2.8 3.149 0.066 1.567-0.567 2.667-1.9 3.301-1.167 0.566-2.333 0.483-3.5-0.25-1.1-0.7-1.684-1.684-1.75-2.95-0.034-1.167 0.466-2.084 1.5-2.75 0.933-0.6 1.883-0.766 2.85-0.5z" clip-rule="evenodd" fill="url(#m)" fill-rule="evenodd"/> <linearGradient id="l" x1="2.3848" x2="14.635" y1="27.27" y2="27.27" gradientUnits="userSpaceOnUse"> <stop stop-color="#45488F" offset="0"/> <stop stop-color="#313157" offset="1"/> </linearGradient> <path d="m11.6 30.55c1.1-0.5 1.617-1.399 1.55-2.7-0.066-1.366-0.833-2.233-2.3-2.6-0.8-0.2-1.583-0.05-2.35 0.45-0.833 0.533-1.233 1.283-1.2 2.25 0.034 1.033 0.5 1.85 1.4 2.45 0.967 0.6 1.933 0.65 2.9 0.15zm-5.75-7c-0.7-0.3-1.367-0.2-2 0.3-0.767 0.567-1.1 1.434-1 2.601 0.1 1.2 0.633 2 1.6 2.399 0.9 0.367 1.667 0.217 2.3-0.449l-0.05-0.451c0-0.8 0.267-1.5 0.8-2.101-0.167-1.132-0.717-1.899-1.65-2.299zm-2.25 0c0.833-0.566 1.667-0.684 2.5-0.35 0.933 0.366 1.566 1.1 1.9 2.2 0.9-0.733 1.917-0.967 3.05-0.7 1.767 0.467 2.7 1.517 2.8 3.149 0.066 1.567-0.567 2.667-1.9 3.301-1 0.5-2 0.5-3 0-1-0.434-1.667-1.15-2-2.15l-1.05 0.45c-0.8 0.133-1.55-0.05-2.25-0.55-0.733-0.567-1.15-1.367-1.25-2.4-0.1-1.333 0.3-2.316 1.2-2.95z" clip-rule="evenodd" fill="url(#l)" fill-rule="evenodd"/> <linearGradient id="g" x1="2.375" x2="14.625" y1="27.1" y2="27.1" gradientUnits="userSpaceOnUse"> <stop stop-color="#45488F" offset="0"/> <stop stop-color="#313157" offset="1"/> </linearGradient> <path d="m6.55 24.75 0.95 1.1c0.167 0.267 0.05 0.801-0.35 1.601-0.066 0.2-0.133 0.616-0.2 1.25 0.033 0.5-0.317 0.75-1.05 0.75-0.566 0-0.917-0.017-1.05-0.05-0.167 0-0.3-0.067-0.4-0.2l-0.25-1.401 0.85 0.851 0.5 0.149c-0.233-0.399-0.367-0.75-0.4-1.05l-0.05-0.75 0.25 0.4c0.167 0.3 0.333 0.483 0.5 0.55l0.6 0.25-0.55-1.5-0.1-0.45 0.8 0.5 0.2 0.2c0.067-0.533 0.034-1-0.1-1.4l-0.15-0.8z" clip-rule="evenodd" fill="url(#g)" fill-rule="evenodd"/> <linearGradient id="f" x1="2.375" x2="14.625" y1="28.35" y2="28.35" gradientUnits="userSpaceOnUse"> <stop stop-color="#45488F" offset="0"/> <stop stop-color="#313157" offset="1"/> </linearGradient> <path d="m11.5 27.4-0.3-0.7 0.45 0.45c0.3 0.267 0.567 0.683 0.8 1.25l-0.1-1.25c-0.067-0.301-0.233-0.65-0.5-1.051l-0.4-0.449 0.85 0.05 0.3 0.25c0.2 0.233 0.367 0.467 0.5 0.7 0.267 0.5 0.333 1.35 0.2 2.55-0.1 0.566-0.517 1.184-1.25 1.85l-1.2-0.05c-0.5-0.033-0.934-0.2-1.3-0.5l-0.45-0.5 0.3 0.15c0.233 0.133 0.533 0.233 0.9 0.3 0.534 0.066 0.867-0.017 1-0.25-0.333-0.2-0.633-0.467-0.9-0.8-0.133-0.2-0.25-0.483-0.35-0.851l-0.1-0.5 0.9 0.9c0.3 0.3 0.617 0.366 0.95 0.2v-0.7c0-0.199-0.1-0.549-0.3-1.049z" clip-rule="evenodd" fill="url(#f)" fill-rule="evenodd"/> <linearGradient id="e" x1="2.8501" x2="10.05" y1="27.057" y2="27.057" gradientUnits="userSpaceOnUse"> <stop stop-color="#CFD1FF" offset="0"/> <stop stop-color="#7E7FD6" offset="1"/> </linearGradient> <path d="m9.1 26.05c0.6 0.033 0.683 0.417 0.25 1.15-0.434 0.733-0.833 1-1.2 0.8-0.333-0.167-0.35-0.533-0.05-1.1s0.633-0.85 1-0.85z" clip-rule="evenodd" fill="url(#e)" fill-rule="evenodd"/> <linearGradient id="d" x1="2.8501" x2="10.05" y1="25.095" y2="25.095" gradientUnits="userSpaceOnUse"> <stop stop-color="#CFD1FF" offset="0"/> <stop stop-color="#7E7FD6" offset="1"/> </linearGradient> <path d="m4.15 24.3c0.567-0.066 0.7 0.184 0.4 0.75s-0.617 0.85-0.95 0.85-0.417-0.25-0.25-0.75c0.133-0.5 0.4-0.784 0.8-0.85z" clip-rule="evenodd" fill="url(#d)" fill-rule="evenodd"/> <use transform="matrix(1 0 0 -1 2.2002 6.75)" y="-31.5" width="5.3" height="31.5" enable-background="new" opacity=".5781" xlink:href="#i"/> <use transform="matrix(1 0 0 -1 16.9 6.75)" y="-31.5" width="5.25" height="31.5" enable-background="new" opacity=".2109" xlink:href="#j"/> <use transform="matrix(1 0 0 -1 2.6499 6.75)" y="-5.383" width="19.4" height="5.383" enable-background="new" opacity=".7695" xlink:href="#k"/> <linearGradient id="c" x1="1.6499" x2="22.65" y1="7.6499" y2="7.6499" gradientUnits="userSpaceOnUse"> <stop stop-color="#D6D8FF" offset="0"/> <stop stop-color="#939AAD" offset="1"/> </linearGradient> <path d="m20.45 6.2c0.2 0.633 0.633 1.066 1.3 1.3 0.333 0.133 0.634 0.183 0.9 0.15 0 0.167-0.067 0.35-0.2 0.55-0.167 0.333-0.533 0.517-1.101 0.55-0.199 0-0.416 0.117-0.649 0.35-0.2 0.233-0.467 0.35-0.8 0.35-0.834 0-1.667 0.083-2.5 0.25-0.3 0.066-0.783 0.267-1.45 0.6-0.6 0.3-1.05 0.45-1.35 0.45-0.8-0.133-1.367-0.167-1.7-0.1-0.566 0.067-1.133 0-1.7-0.2-1.267-0.434-2.517-0.5-3.75-0.2-1 0.233-1.967-0.017-2.9-0.75-0.367-0.267-0.733-0.417-1.1-0.45-0.433 0-0.717-0.05-0.85-0.15-0.233-0.167-0.467-0.417-0.7-0.75l-0.25-0.45c0.867-0.3 1.45-0.6 1.75-0.9 0.3-0.267 0.6-1.017 0.9-2.25 2.6 0.034 5.233 0.117 7.9 0.25 5.3 0.3 8.05 0.767 8.25 1.4z" clip-rule="evenodd" fill="url(#c)" fill-rule="evenodd"/> <linearGradient id="b" x1="2.0498" x2="22.65" y1="8.5" y2="8.5" gradientUnits="userSpaceOnUse"> <stop stop-color="#8CADDE" offset="0"/> <stop stop-color="#516D96" offset="1"/> </linearGradient> <path d="m22.65 7.75c0 0.133-0.067 0.283-0.2 0.45-0.167 0.333-0.517 0.517-1.05 0.55-0.434-0.333-0.967-0.867-1.601-1.6-0.2-0.233-0.533-0.217-1 0.05l-0.6 0.45 0.2 1.9-1 0.15c-0.3 0.066-0.767 0.267-1.4 0.6-0.567 0.267-1 0.417-1.3 0.45l0.35-0.8c0.333-0.667 0.517-1.333 0.55-2l-3.499 0.05c-0.133 0.367-0.434 0.867-0.9 1.5-0.167 0.3-0.367 0.567-0.6 0.8-1.133-0.267-2.184-0.283-3.15-0.05-0.167 0.067-0.434 0.1-0.8 0.1l0.7-0.35c0.967-0.5 1.65-1.2 2.05-2.1l-1.25-0.6-1.3 0.15-1 0.75c-0.333 0.267-0.983 0.6-1.95 1-0.6-0.033-1.033-0.133-1.3-0.3l-0.55-0.6 0.75-0.15c0.867-0.2 1.833-0.833 2.9-1.9l15.05 0.5c0.4 0.567 0.917 0.85 1.55 0.85l0.35 0.15z" clip-rule="evenodd" fill="url(#b)" fill-rule="evenodd"/> <use transform="matrix(1 0 0 -1 3.4502 5.7998)" y="-3.708" width="17.7" height="3.708" enable-background="new" opacity=".4883" xlink:href="#a"/> <linearGradient id="ag" x1="3.2998" x2="20.775" y1="6.4502" y2="6.4502" gradientUnits="userSpaceOnUse"> <stop stop-color="#FFE5A3" offset="0"/> <stop stop-color="#87733D" offset="1"/> </linearGradient> <path d="m20.8 6.45c0 0.566-0.85 1.05-2.55 1.45s-3.767 0.6-6.2 0.6c-2.4 0-4.45-0.2-6.15-0.6-1.733-0.4-2.6-0.883-2.6-1.45s0.867-1.05 2.6-1.45c1.7-0.4 3.75-0.6 6.15-0.6s4.467 0.2 6.2 0.6c1.7 0.4 2.55 0.883 2.55 1.45z" clip-rule="evenodd" fill="url(#ag)" fill-rule="evenodd"/> <linearGradient id="ah" x1="3.25" x2="20.925" y1="4.75" y2="4.75" gradientUnits="userSpaceOnUse"> <stop stop-color="#2B2BE2" offset="0"/> <stop stop-color="#3045FF" offset=".3255"/> <stop stop-color="#3241F6" offset=".6"/> <stop stop-color="#3636E0" offset="1"/> </linearGradient> <path d="m20.95 2.1v3.55c-0.066 0.433-0.95 0.833-2.65 1.2-1.8 0.367-3.867 0.55-6.2 0.55s-4.4-0.183-6.2-0.55c-1.7-0.367-2.583-0.767-2.65-1.2v-3.55h17.7z" clip-rule="evenodd" fill="url(#ah)" fill-rule="evenodd"/> <linearGradient id="ai" x1="-19.367" x2="-3.3485" y1="-3.0298" y2="-3.0298" gradientTransform="matrix(-.9973 .0734 -.0734 -.9973 .00030985 -6.0722e-5)" gradientUnits="userSpaceOnUse"> <stop stop-color="#3B5BFF" offset="0"/> <stop stop-color="#3B52FF" offset=".8157"/> <stop stop-color="#3B4FFF" offset="1"/> </linearGradient> <path d="m20.9 2.15c0 0.467-0.867 0.867-2.601 1.2-1.7 0.333-3.767 0.5-6.2 0.5-2.467 0-4.55-0.167-6.25-0.5-1.733-0.333-2.6-0.733-2.6-1.2s0.867-0.867 2.6-1.2c1.7-0.333 3.783-0.5 6.25-0.5 2.433 0 4.5 0.167 6.2 0.5 1.734 0.333 2.601 0.733 2.601 1.2z" clip-rule="evenodd" fill="url(#ai)" fill-rule="evenodd"/> <use transform="matrix(1 0 0 -1 4.2998 7.25)" x="0.028" y="-1.206" width="9.472" height="1.206" enable-background="new" opacity=".4805" xlink:href="#h"/> <path d="m4.55 36.8c0.7 0.367 1.117 0.75 1.25 1.15 0.133 0.366 0.05 0.55-0.25 0.55-0.433 0-1.066-0.384-1.9-1.15-0.367-0.366-0.4-0.6-0.1-0.699 0.3-0.134 0.633-0.085 1 0.149z" clip-rule="evenodd" fill="#F9E2C9" fill-rule="evenodd"/> <path d="m7.2 38.15c0.5 0.1 0.633 0.283 0.4 0.55s-0.433 0.317-0.6 0.15c-0.167-0.133-0.25-0.3-0.25-0.5-0.033-0.2 0.117-0.267 0.45-0.2z" clip-rule="evenodd" fill="#F9E2C9" fill-rule="evenodd"/> <linearGradient id="aj" x1="2.8125" x2="21.394" y1="3.876" y2="3.876" gradientUnits="userSpaceOnUse"> <stop stop-color="#D6D8FF" offset="0"/> <stop stop-color="#7B8191" offset="1"/> </linearGradient> <path d="m20.9 6.05c-0.3 0.4-1.084 0.75-2.35 1.05-1.7 0.4-3.95 0.617-6.75 0.65-3.767 0.033-6.6-0.4-8.5-1.3-0.3-0.133-0.467-0.733-0.5-1.8-0.033-0.9 0-1.65 0.1-2.25 0.1-0.566 0.767-1.083 2-1.55 1.567-0.567 3.783-0.85 6.65-0.85 3.133 0 5.567 0.25 7.3 0.75 1.567 0.467 2.384 1.067 2.45 1.8 0.167 1.733 0.033 2.9-0.4 3.5z" clip-rule="evenodd" fill="url(#aj)" fill-rule="evenodd"/> <g clip-rule="evenodd" fill-rule="evenodd"> <linearGradient id="al" x1="2.75" x2="21.25" y1="4.9502" y2="4.9502" gradientUnits="userSpaceOnUse"> <stop stop-color="#8CADDE" offset="0"/> <stop stop-color="#516D96" offset="1"/> </linearGradient> <path d="m21.3 2.55 0.05 0.9c-1.433 1.333-2.333 2.333-2.699 3l-0.4 0.7c-0.867 0.2-1.7 0.333-2.5 0.4 1.7-2.1 3.05-3.466 4.05-4.1 0.7-0.467 1.184-0.833 1.45-1.1l0.049 0.2z" fill="url(#al)"/> <linearGradient id="z" x1="2.75" x2="21.25" y1="2.9502" y2="2.9502" gradientUnits="userSpaceOnUse"> <stop stop-color="#8CADDE" offset="0"/> <stop stop-color="#516D96" offset="1"/> </linearGradient> <path d="m4.15 2.7 5.45-2.65 2.95-0.05c-1.4 0.8-2.983 1.583-4.75 2.35-0.8 0.333-1.567 0.6-2.3 0.8-1.1 0.9-1.933 1.817-2.5 2.75-0.133-0.4-0.2-1.017-0.2-1.85 0.067-0.133 0.133-0.217 0.2-0.25 0.333-0.433 0.717-0.8 1.15-1.1z" fill="url(#z)"/> <linearGradient id="y" x1="2.75" x2="21.25" y1="3.7754" y2="3.7754" gradientUnits="userSpaceOnUse"> <stop stop-color="#8CADDE" offset="0"/> <stop stop-color="#516D96" offset="1"/> </linearGradient> <path d="m11.75 1.9c0.967-0.433 2.067-1.033 3.3-1.8l2.45 0.35c-2.033 1.2-3.317 1.917-3.85 2.15l-2.9 1.15c-0.967 0.5-1.85 1.217-2.65 2.15l-1.25 1.55c-0.533-0.1-1.3-0.267-2.3-0.5 0.967-1.233 1.783-2.15 2.45-2.75 0.4-0.333 0.733-0.534 1-0.6l3.75-1.7z" fill="url(#y)"/> <linearGradient id="x" x1="2.75" x2="21.25" y1="4.2998" y2="4.2998" gradientUnits="userSpaceOnUse"> <stop stop-color="#8CADDE" offset="0"/> <stop stop-color="#516D96" offset="1"/> </linearGradient> <path d="m12.35 4.6 6.8-3.75c0.566 0.167 1.05 0.4 1.449 0.7l-3.75 2c-1.567 0.767-2.817 1.784-3.75 3.05l-0.75 1.15-2.599-0.05c1-1.533 1.867-2.567 2.6-3.1z" fill="url(#x)"/> </g> <linearGradient id="w" x1="-21.305" x2="-2.2857" y1="-2.6934" y2="-2.6934" gradientTransform="matrix(-.9977 .0684 -.0684 -.9977 .00045416 .00023195)" gradientUnits="userSpaceOnUse"> <stop stop-color="#D6D8FF" offset="0"/> <stop stop-color="#939AAD" offset="1"/> </linearGradient> <path d="m12.2 3.75c-4.567 0-7.633-0.517-9.2-1.55 0.267-0.567 1.017-1.05 2.25-1.45 1.533-0.5 3.633-0.75 6.3-0.75 5.534 0 8.733 0.7 9.601 2.1-1.401 1.1-4.384 1.65-8.951 1.65z" clip-rule="evenodd" fill="url(#w)" fill-rule="evenodd"/> <g clip-rule="evenodd" fill-rule="evenodd"> <linearGradient id="v" x1="-15.695" x2="-2.7196" y1="-4.3008" y2="-4.3008" gradientTransform="matrix(-.9306 .3661 -.3661 -.9306 .0005362 .00044817)" gradientUnits="userSpaceOnUse"> <stop stop-color="#8CADDE" offset="0"/> <stop stop-color="#516D96" offset="1"/> </linearGradient> <path d="m4.15 2.7 5.45-2.65 2.95-0.05c-1.4 0.8-2.983 1.583-4.75 2.35l-2.3 0.8-1.4-0.4 0.05-0.05z" fill="url(#v)"/> <linearGradient id="u" x1="-15.69" x2="-2.7138" y1="-6.522" y2="-6.522" gradientTransform="matrix(-.9306 .3661 -.3661 -.9306 .0005362 .00044817)" gradientUnits="userSpaceOnUse"> <stop stop-color="#8CADDE" offset="0"/> <stop stop-color="#516D96" offset="1"/> </linearGradient> <path d="m17.5 0.45c-0.5 0.2-1.267 0.55-2.3 1.05-1.1 0.567-1.767 0.9-2 1l-2.4 1.25-2.8-0.2 3.75-1.65c0.967-0.433 2.067-1.033 3.3-1.8v0.05l1.35 0.1 0.95 0.15 0.15 0.05z" fill="url(#u)"/> <linearGradient id="t" x1="-15.72" x2="-2.7445" y1="-8.626" y2="-8.626" gradientTransform="matrix(-.9306 .3661 -.3661 -.9306 .0005362 .00044817)" gradientUnits="userSpaceOnUse"> <stop stop-color="#8CADDE" offset="0"/> <stop stop-color="#516D96" offset="1"/> </linearGradient> <polygon points="20.55 1.55 20.6 1.55 17.05 3.45 13.85 3.7 19.15 0.85 19.95 1.15 20.05 1.2" fill="url(#t)"/> </g> </svg>