<svg version="1.1" id="Layer_1" xmlns="http://www.w3.org/2000/svg" xmlns:xlink="http://www.w3.org/1999/xlink" x="0px" y="0px"
	 width="100%" viewBox="0 0 256 256" enable-background="new 0 0 256 256" xml:space="preserve">
<path fill="#FEF1FC" opacity="1.000000" stroke="none" 
	d="
M119.000008,257.000000 
	C100.312439,257.000000 81.624878,257.000000 62.476936,256.610107 
	C59.440441,245.974518 56.017746,243.817368 47.141617,246.488892 
	C48.645027,242.932083 50.135979,239.723877 51.626930,236.515671 
	C50.843319,235.952896 50.059704,235.390121 49.276093,234.827347 
	C47.702034,237.219223 46.127975,239.611099 44.409985,242.221695 
	C42.902431,239.370499 41.893860,237.462997 40.885284,235.555511 
	C40.216045,235.670212 39.546803,235.784912 38.877563,235.899597 
	C39.050236,239.277985 39.222912,242.656357 39.169662,246.415375 
	C34.397709,247.614502 29.851679,248.432968 25.305647,249.251450 
	C25.456083,250.196167 25.606518,251.140884 25.756952,252.085602 
	C30.456726,251.423035 35.156498,250.760468 39.547958,250.421463 
	C37.493092,252.830017 35.746544,254.915009 34.000000,257.000000 
	C23.061279,257.000000 12.122560,257.000000 1.000000,257.000000 
	C1.000000,241.979599 1.000000,226.958466 1.370654,211.286346 
	C4.105225,211.382584 6.501606,212.041306 8.826589,212.894592 
	C14.378024,214.931992 18.096704,213.712082 18.805143,207.882965 
	C19.603134,201.316986 18.913940,194.478729 18.136688,187.845001 
	C17.617556,183.414276 13.951421,181.747696 9.671869,181.834854 
	C7.854975,181.871857 6.043212,182.160812 4.488409,182.025635 
	C6.275317,178.610703 7.802934,175.505417 9.330551,172.400116 
	C8.809781,172.073776 8.289011,171.747437 7.768241,171.421097 
	C5.512159,173.614059 3.256076,175.807022 0.999997,178.000000 
	C1.000000,146.979111 1.000000,115.958214 1.292891,84.131569 
	C3.956126,84.043854 6.368161,84.648582 8.688523,85.502441 
	C14.285256,87.561943 17.982409,86.411514 18.762865,80.650162 
	C19.630350,74.246338 19.076878,67.549904 18.367857,61.065514 
	C17.836222,56.203434 14.011631,54.366440 9.297262,54.399967 
	C8.214312,54.407665 7.129882,54.207226 5.814742,53.773697 
	C6.736363,50.602341 7.889375,47.759865 9.042387,44.917385 
	C8.540792,44.639553 8.039197,44.361721 7.537602,44.083889 
	C5.358401,46.389259 3.179200,48.694630 0.999999,51.000000 
	C1.000000,34.421677 1.000000,17.843355 1.000000,1.000000 
	C11.686103,1.000000 22.374393,1.000000 33.487267,1.369999 
	C30.890739,8.293692 31.522875,11.923733 37.634521,15.579085 
	C42.120770,18.262295 47.230919,19.948824 52.155167,21.839563 
	C56.655815,23.567656 60.015446,22.373539 60.980259,17.644886 
	C62.080647,12.251755 61.723637,6.561262 62.000000,1.000000 
	C80.687561,1.000000 99.375122,1.000000 118.504700,1.371562 
	C115.969376,8.305058 116.616486,11.959342 122.695793,15.583712 
	C127.186646,18.261072 132.291687,19.954643 137.215698,21.845329 
	C141.707275,23.569963 145.078766,22.367153 146.036514,17.632570 
	C147.126572,12.243920 146.743027,6.557176 147.000000,1.000000 
	C165.687561,1.000000 184.375122,1.000000 203.517960,1.375262 
	C201.041809,8.354518 201.658630,12.093064 207.796402,15.602631 
	C212.921387,18.533089 218.636902,20.648409 224.340576,22.216692 
	C226.053299,22.687618 229.612076,20.627926 230.541946,18.813633 
	C232.057831,15.855868 232.267517,12.168268 232.724457,8.748029 
	C233.065048,6.198585 232.925629,3.585012 233.000000,1.000000 
	C240.952408,1.000000 248.904800,1.000000 257.000000,1.000000 
	C257.000000,17.353989 257.000000,33.708336 256.641815,50.437637 
	C255.406021,48.576874 254.528427,46.341152 253.650833,44.105431 
	C252.856216,44.297318 252.061615,44.489201 251.267014,44.681084 
	C251.591431,48.481049 251.915833,52.281013 251.777283,56.093277 
	C246.626053,56.027164 241.918640,55.877048 236.838959,60.141541 
	C242.187256,60.141541 246.137207,60.141541 250.036407,60.484520 
	C249.519211,61.486156 249.081787,62.167725 248.581955,62.799965 
	C242.704590,70.234207 243.386230,74.960815 251.297836,80.274353 
	C253.028244,81.436508 255.090546,82.104454 257.000000,83.000000 
	C257.000000,114.687561 257.000000,146.375122 256.669312,178.361511 
	C255.463165,176.264709 254.587677,173.869110 253.712204,171.473495 
	C252.893585,171.647705 252.074982,171.821915 251.256378,171.996109 
	C251.601608,175.693909 251.946854,179.391708 251.847260,183.217529 
	C246.746231,183.393738 242.015259,183.174286 238.216202,186.290009 
	C238.264984,186.856918 238.313766,187.423828 238.362534,187.990738 
	C242.061035,187.990738 245.759537,187.990738 249.340637,188.343506 
	C242.322144,200.251633 244.938904,207.419998 257.000000,210.000000 
	C257.000000,225.570847 257.000000,241.141678 257.000000,257.000000 
	C248.981400,257.000000 240.959366,257.000000 232.509827,256.606262 
	C230.150803,247.887573 227.733826,245.293839 222.042603,245.662643 
	C220.230957,245.780045 218.441940,246.246124 216.877716,246.226044 
	C218.672241,242.814072 220.231613,239.728714 221.790970,236.643356 
	C221.111298,236.148849 220.431625,235.654343 219.751938,235.159836 
	C217.949921,237.390442 216.147888,239.621033 214.278259,241.935333 
	C213.113953,239.687042 212.040909,237.614990 210.967880,235.542938 
	C210.476746,235.633438 209.985611,235.723923 209.494476,235.814423 
	C209.494476,239.571228 209.494476,243.328033 209.494476,246.987244 
	C204.562164,247.887985 199.931610,248.733627 195.301041,249.579285 
	C195.399277,250.350113 195.497498,251.120956 195.595734,251.891785 
	C199.739594,251.651871 203.883453,251.411942 207.958862,251.489670 
	C206.593597,253.538208 205.296799,255.269104 204.000000,257.000000 
	C185.312439,257.000000 166.624878,257.000000 147.491562,256.606262 
	C144.567215,245.920898 141.199341,243.800705 132.263641,246.439987 
	C133.751846,242.814896 135.211884,239.638779 136.671936,236.462662 
	C135.947281,235.911011 135.222641,235.359360 134.498001,234.807724 
	C132.769714,237.225128 131.041428,239.642532 129.306992,242.068542 
	C127.947525,239.419937 126.946411,237.469482 125.945297,235.519028 
	C125.279343,235.627411 124.613388,235.735779 123.947433,235.844147 
	C124.103043,239.249390 124.258652,242.654617 124.197449,246.449036 
	C119.447815,247.643372 114.915001,248.448517 110.382179,249.253647 
	C110.483292,250.088165 110.584396,250.922668 110.685509,251.757187 
	C114.801926,251.556015 118.918343,251.354843 122.959900,251.470703 
	C121.590034,253.525162 120.295021,255.262589 119.000008,257.000000 
M208.950577,119.566261 
	C204.308044,119.868195 199.442734,119.376587 195.784363,124.069321 
	C199.611526,124.069321 203.438705,124.069321 207.107056,124.766609 
	C206.555435,125.583443 206.026001,126.416321 205.448730,127.214607 
	C200.328247,134.295578 200.749466,138.870132 208.222885,143.404388 
	C213.111847,146.370621 218.775513,148.220474 224.288574,149.941025 
	C227.954071,151.084976 230.819351,148.524780 231.203384,145.146652 
	C231.887589,139.128189 232.430557,132.891434 231.586319,126.951530 
	C230.477524,119.150391 227.370026,117.642197 219.352707,118.855713 
	C218.649063,118.962219 217.846024,118.412140 217.163971,117.458290 
	C218.716034,114.624428 220.268082,111.790565 221.820129,108.956703 
	C221.066391,108.385216 220.312637,107.813721 219.558899,107.242233 
	C217.858948,109.558731 216.159012,111.875237 214.354538,114.334190 
	C213.099762,111.950905 212.018753,109.897682 210.636505,107.272278 
	C207.960831,111.747192 208.188034,115.482346 208.950577,119.566261 
M166.245468,56.100052 
	C161.584793,56.081310 156.847885,55.778259 151.822861,60.139133 
	C157.162460,60.139133 161.119202,60.139133 164.966339,60.817089 
	C164.378235,61.608143 163.803055,62.409203 163.200027,63.188702 
	C157.806854,70.160049 158.276230,75.112473 165.731888,79.789902 
	C170.014206,82.476479 175.043274,84.027870 179.832321,85.835548 
	C184.263916,87.508316 187.272812,86.120361 188.782944,81.507996 
	C191.252914,73.963997 190.954605,66.218498 187.650116,59.144218 
	C186.571228,56.834492 182.587677,55.589901 179.685501,54.543133 
	C178.171051,53.996902 176.119812,54.938885 174.766388,54.571945 
	C176.291687,51.410511 177.816986,48.249077 179.342285,45.087646 
	C178.598740,44.577534 177.855194,44.067421 177.111664,43.557308 
	C175.208344,45.926136 173.305023,48.294964 171.643585,50.362743 
	C170.559616,48.297070 169.457138,46.196144 168.354675,44.095219 
	C167.632355,44.302814 166.910019,44.510406 166.187698,44.718002 
	C166.515106,48.498306 166.842529,52.278610 166.245468,56.100052 
M81.201935,56.086906 
	C76.535172,56.084427 71.779289,55.754162 66.799309,60.141136 
	C72.125916,60.141136 76.094101,60.141136 79.940376,60.815887 
	C79.454529,61.479446 78.989700,62.159641 78.479622,62.804020 
	C72.603920,70.226761 73.091858,75.087158 81.071106,80.073082 
	C85.080887,82.578651 89.818466,83.955490 94.291985,85.673309 
	C99.240013,87.573372 102.306496,86.194046 103.895317,81.055382 
	C106.184570,73.651352 105.861511,66.062294 102.616417,59.163334 
	C101.527313,56.847935 97.556366,55.597343 94.654289,54.544762 
	C93.141281,53.996002 91.088364,54.935833 89.728333,54.562389 
	C91.249268,51.406403 92.770203,48.250416 94.291138,45.094429 
	C93.595253,44.632153 92.899368,44.169880 92.203484,43.707603 
	C90.254326,46.009853 88.305168,48.312107 86.599312,50.326984 
	C85.510521,48.274483 84.400177,46.181335 83.289833,44.088192 
	C82.573227,44.295170 81.856613,44.502151 81.140007,44.709129 
	C81.466400,48.486210 81.792801,52.263290 81.201935,56.086906 
M123.913048,119.564079 
	C119.280304,119.905075 114.399178,119.362686 110.745422,124.057632 
	C114.582817,124.057632 118.420204,124.057632 122.085472,124.751160 
	C121.637985,125.435493 121.223907,126.144577 120.737885,126.800354 
	C115.186485,134.290817 115.612282,138.884796 123.489342,143.641785 
	C128.227661,146.503281 133.736984,148.208389 139.061234,149.935593 
	C142.426178,151.027206 145.315613,149.022705 145.899979,145.798706 
	C146.830353,140.665771 147.569168,135.312820 147.139038,130.157211 
	C146.246414,119.457848 142.494873,116.969116 132.428772,118.107765 
	C133.855408,115.017891 135.282043,111.928009 136.708679,108.838135 
	C135.980438,108.326241 135.252197,107.814339 134.523941,107.302444 
	C132.815094,109.590584 131.106247,111.878723 129.315536,114.276474 
	C128.047485,111.899399 126.968582,109.876915 125.574242,107.263123 
	C122.910660,111.767151 123.116241,115.485832 123.913048,119.564079 
M38.874512,119.590439 
	C34.217632,119.900986 29.308056,119.374519 25.551521,122.667320 
	C25.637428,123.138184 25.723333,123.609039 25.809240,124.079903 
	C29.592667,124.079903 33.376091,124.079903 37.353825,124.789635 
	C29.113173,134.817474 31.235744,142.245956 43.585960,146.572632 
	C46.411591,147.562546 49.244831,148.531128 52.081184,149.489944 
	C56.679787,151.044540 60.205261,149.954498 60.973160,145.267273 
	C61.971046,139.176270 62.241467,132.712585 61.342255,126.628448 
	C60.218697,119.026321 57.089458,117.571304 49.410198,118.832840 
	C48.722828,118.945763 47.923725,118.378532 47.182407,117.423988 
	C48.688396,114.582214 50.194386,111.740440 51.700378,108.898666 
	C51.186150,108.567940 50.671925,108.237213 50.157700,107.906494 
	C48.120358,109.849930 46.083015,111.793373 44.046654,113.735878 
	C42.885242,111.612129 41.860767,109.738785 40.363083,107.000122 
	C38.022076,111.827644 37.944794,115.541451 38.874512,119.590439 
M81.319901,183.346451 
	C76.671227,183.432922 71.921410,183.160950 68.131821,186.291885 
	C68.189995,186.810989 68.248161,187.330109 68.306328,187.849213 
	C71.855774,187.849213 75.405228,187.849213 79.113770,188.580704 
	C78.645470,189.430695 78.241707,190.324524 77.698814,191.123856 
	C72.802940,198.332214 73.341972,202.590881 80.813103,207.245789 
	C84.954910,209.826340 89.825539,211.275085 94.437691,213.052216 
	C99.146141,214.866440 102.803291,213.613037 103.643517,208.766418 
	C104.639534,203.021210 104.974594,196.877380 104.061615,191.150970 
	C102.646629,182.275787 98.465309,180.261261 89.950821,182.100250 
	C91.347511,178.828568 92.744202,175.556870 94.140892,172.285187 
	C93.463638,171.817841 92.786385,171.350494 92.109131,170.883133 
	C90.249535,173.273087 88.389938,175.663040 86.655945,177.891571 
	C85.495918,175.632065 84.433678,173.563034 83.371445,171.494003 
	C82.658417,171.640289 81.945389,171.786575 81.232368,171.932861 
	C81.550949,175.642120 81.869530,179.351395 81.319901,183.346451 
M166.342697,183.335434 
	C161.679337,183.382416 156.945770,183.180054 153.141602,186.278259 
	C153.194351,186.846390 153.247086,187.414505 153.299820,187.982635 
	C157.015518,187.982635 160.731201,187.982635 164.202148,188.684082 
	C163.799255,189.394073 163.448105,190.139862 162.985504,190.808563 
	C157.810501,198.289124 158.331711,202.607956 166.034088,207.370041 
	C170.204773,209.948608 175.105316,211.389603 179.752762,213.141800 
	C184.194870,214.816605 187.883972,213.530014 188.631958,208.924194 
	C189.597198,202.980576 189.925659,196.659973 188.987747,190.746048 
	C187.638306,182.237411 183.367477,180.293716 174.981339,182.112473 
	C176.396072,178.836273 177.810822,175.560089 179.225555,172.283890 
	C178.536407,171.802887 177.847260,171.321869 177.158112,170.840851 
	C175.327911,173.282486 173.497711,175.724106 171.773636,178.024155 
	C170.542603,175.610168 169.490448,173.546936 168.438309,171.483704 
	C167.715149,171.635666 166.991974,171.787628 166.268814,171.939606 
	C166.586227,175.649536 166.903625,179.359467 166.342697,183.335434 
z"/>
<path fill="#F80E0E" opacity="1.000000" stroke="none" 
	d="
M6.046133,54.102577 
	C7.129882,54.207226 8.214312,54.407665 9.297262,54.399967 
	C14.011631,54.366440 17.836222,56.203434 18.367857,61.065514 
	C19.076878,67.549904 19.630350,74.246338 18.762865,80.650162 
	C17.982409,86.411514 14.285256,87.561943 8.688523,85.502441 
	C6.368161,84.648582 3.956126,84.043854 1.292891,83.662910 
	C1.000000,75.312439 1.000000,66.624870 1.252493,57.335968 
	C2.483478,56.169666 3.461970,55.604706 4.833687,55.040222 
	C5.508959,54.701271 5.791007,54.361839 6.037384,54.032623 
	C6.001713,54.042843 6.046133,54.102581 6.046133,54.102577 
z"/>
<path fill="#F80F10" opacity="1.000000" stroke="none" 
	d="
M61.531342,1.000000 
	C61.723637,6.561262 62.080647,12.251755 60.980259,17.644886 
	C60.015446,22.373539 56.655815,23.567656 52.155167,21.839563 
	C47.230919,19.948824 42.120770,18.262295 37.634521,15.579085 
	C31.522875,11.923733 30.890739,8.293692 33.955925,1.369999 
	C43.020897,1.000000 52.041790,1.000000 61.531342,1.000000 
z"/>
<path fill="#F80E0E" opacity="1.000000" stroke="none" 
	d="
M4.229115,182.335266 
	C6.043212,182.160812 7.854975,181.871857 9.671869,181.834854 
	C13.951421,181.747696 17.617556,183.414276 18.136688,187.845001 
	C18.913940,194.478729 19.603134,201.316986 18.805143,207.882965 
	C18.096704,213.712082 14.378024,214.931992 8.826589,212.894592 
	C6.501606,212.041306 4.105225,211.382584 1.370654,210.817688 
	C1.000000,202.312439 1.000000,193.624863 1.270331,184.432297 
	C2.436813,183.396622 3.332963,182.865936 4.229115,182.335266 
z"/>
<path fill="#F80F0F" opacity="1.000000" stroke="none" 
	d="
M146.531342,1.000000 
	C146.743027,6.557176 147.126572,12.243920 146.036514,17.632570 
	C145.078766,22.367153 141.707275,23.569963 137.215698,21.845329 
	C132.291687,19.954643 127.186646,18.261072 122.695793,15.583712 
	C116.616486,11.959342 115.969376,8.305058 118.973358,1.371562 
	C128.020889,1.000000 137.041794,1.000000 146.531342,1.000000 
z"/>
<path fill="#F80F10" opacity="1.000000" stroke="none" 
	d="
M232.531342,1.000000 
	C232.925629,3.585012 233.065048,6.198585 232.724457,8.748029 
	C232.267517,12.168268 232.057831,15.855868 230.541946,18.813633 
	C229.612076,20.627926 226.053299,22.687618 224.340576,22.216692 
	C218.636902,20.648409 212.921387,18.533089 207.796402,15.602631 
	C201.658630,12.093064 201.041809,8.354518 203.986618,1.375262 
	C213.354233,1.000000 222.708450,1.000000 232.531342,1.000000 
z"/>
<path fill="#F70F0E" opacity="1.000000" stroke="none" 
	d="
M216.642563,246.552658 
	C218.441940,246.246124 220.230957,245.780045 222.042603,245.662643 
	C227.733826,245.293839 230.150803,247.887573 232.041168,256.606262 
	C222.979111,257.000000 213.958206,257.000000 204.468658,257.000000 
	C205.296799,255.269104 206.593597,253.538208 208.274994,251.325806 
	C211.320602,249.413742 213.981583,247.983200 216.642563,246.552658 
z"/>
<path fill="#F70E0D" opacity="1.000000" stroke="none" 
	d="
M132.235489,246.888977 
	C141.199341,243.800705 144.567215,245.920898 147.022903,256.606262 
	C137.979111,257.000000 128.958206,257.000000 119.468666,257.000000 
	C120.295021,255.262589 121.590034,253.525162 123.236786,251.345947 
	C124.108078,250.288635 124.627640,249.673111 125.502502,249.056213 
	C127.983696,248.332855 130.109589,247.610916 132.235489,246.888977 
z"/>
<path fill="#F70E0E" opacity="1.000000" stroke="none" 
	d="
M47.129158,246.837494 
	C56.017746,243.817368 59.440441,245.974518 62.008278,256.610107 
	C52.979103,257.000000 43.958210,257.000000 34.468655,257.000000 
	C35.746544,254.915009 37.493092,252.830017 39.654778,250.387436 
	C40.415470,249.678894 40.761021,249.327942 41.466793,249.000549 
	C43.594395,248.295242 45.361778,247.566360 47.129158,246.837494 
z"/>
<path fill="#F81111" opacity="1.000000" stroke="none" 
	d="
M257.000000,209.531342 
	C244.938904,207.419998 242.322144,200.251633 249.616348,188.217926 
	C251.131973,186.852875 252.254501,185.966187 253.696335,185.158630 
	C255.010422,184.825180 256.005219,184.412582 257.000000,184.000000 
	C257.000000,192.354233 257.000000,200.708466 257.000000,209.531342 
z"/>
<path fill="#F70F0F" opacity="1.000000" stroke="none" 
	d="
M257.000000,82.531349 
	C255.090546,82.104454 253.028244,81.436508 251.297836,80.274353 
	C243.386230,74.960815 242.704590,70.234207 248.581955,62.799965 
	C249.081787,62.167725 249.519211,61.486156 250.331177,60.353077 
	C251.509872,59.187473 252.342987,58.496296 253.507629,57.875217 
	C254.892761,57.630207 255.946381,57.315098 257.000000,56.999996 
	C257.000000,65.354233 257.000000,73.708466 257.000000,82.531349 
z"/>
<path fill="#4A9343" opacity="1.000000" stroke="none" 
	d="
M257.000000,183.583344 
	C256.005219,184.412582 255.010422,184.825180 253.570129,184.897064 
	C252.847122,184.067398 252.569611,183.578461 252.292084,183.089508 
	C251.946854,179.391708 251.601608,175.693909 251.256378,171.996109 
	C252.074982,171.821915 252.893585,171.647705 253.712204,171.473495 
	C254.587677,173.869110 255.463165,176.264709 256.669312,178.830170 
	C257.000000,180.388885 257.000000,181.777786 257.000000,183.583344 
z"/>
<path fill="#489342" opacity="1.000000" stroke="none" 
	d="
M257.000000,56.571533 
	C255.946381,57.315098 254.892761,57.630207 253.446152,57.624775 
	C252.782181,56.896481 252.511215,56.488728 252.240250,56.080978 
	C251.915833,52.281013 251.591431,48.481049 251.267014,44.681084 
	C252.061615,44.489201 252.856216,44.297318 253.650833,44.105431 
	C254.528427,46.341152 255.406021,48.576874 256.641815,50.906296 
	C257.000000,52.714359 257.000000,54.428715 257.000000,56.571533 
z"/>
<path fill="#4D9446" opacity="1.000000" stroke="none" 
	d="
M4.440462,55.039742 
	C3.461970,55.604706 2.483478,56.169666 1.252493,56.867313 
	C1.000000,55.285641 1.000000,53.571285 0.999999,51.428463 
	C3.179200,48.694630 5.358401,46.389259 7.537602,44.083889 
	C8.039197,44.361721 8.540792,44.639553 9.042387,44.917385 
	C7.889375,47.759865 6.736363,50.602341 5.814742,53.773701 
	C6.046133,54.102581 6.001713,54.042843 5.673634,53.956467 
	C5.043857,54.259975 4.742159,54.649860 4.440462,55.039742 
z"/>
<path fill="#4C9748" opacity="1.000000" stroke="none" 
	d="
M4.488406,182.025620 
	C3.332963,182.865936 2.436813,183.396622 1.270331,183.963654 
	C1.000000,182.285645 1.000000,180.571289 0.999997,178.428467 
	C3.256076,175.807022 5.512159,173.614059 7.768241,171.421097 
	C8.289011,171.747437 8.809781,172.073776 9.330551,172.400116 
	C7.802934,175.505417 6.275317,178.610703 4.488406,182.025620 
z"/>
<path fill="#F80F0F" opacity="1.000000" stroke="none" 
	d="
M217.089157,118.167038 
	C217.846024,118.412140 218.649063,118.962219 219.352707,118.855713 
	C227.370026,117.642197 230.477524,119.150391 231.586319,126.951530 
	C232.430557,132.891434 231.887589,139.128189 231.203384,145.146652 
	C230.819351,148.524780 227.954071,151.084976 224.288574,149.941025 
	C218.775513,148.220474 213.111847,146.370621 208.222885,143.404388 
	C200.749466,138.870132 200.328247,134.295578 205.448730,127.214607 
	C206.026001,126.416321 206.555435,125.583443 207.487350,124.281013 
	C208.950775,123.029358 210.033920,122.263290 211.433289,121.566788 
	C213.529388,120.479912 215.309265,119.323471 217.089157,118.167038 
z"/>
<path fill="#F81010" opacity="1.000000" stroke="none" 
	d="
M132.060928,118.922226 
	C142.494873,116.969116 146.246414,119.457848 147.139038,130.157211 
	C147.569168,135.312820 146.830353,140.665771 145.899979,145.798706 
	C145.315613,149.022705 142.426178,151.027206 139.061234,149.935593 
	C133.736984,148.208389 128.227661,146.503281 123.489342,143.641785 
	C115.612282,138.884796 115.186485,134.290817 120.737885,126.800354 
	C121.223907,126.144577 121.637985,125.435493 122.470673,124.266335 
	C123.934761,123.021240 125.013664,122.260971 126.396408,121.566971 
	C128.487152,120.729584 130.274033,119.825905 132.060928,118.922226 
z"/>
<path fill="#F80E0E" opacity="1.000000" stroke="none" 
	d="
M89.279320,55.203289 
	C91.088364,54.935833 93.141281,53.996002 94.654289,54.544762 
	C97.556366,55.597343 101.527313,56.847935 102.616417,59.163334 
	C105.861511,66.062294 106.184570,73.651352 103.895317,81.055382 
	C102.306496,86.194046 99.240013,87.573372 94.291985,85.673309 
	C89.818466,83.955490 85.080887,82.578651 81.071106,80.073082 
	C73.091858,75.087158 72.603920,70.226761 78.479622,62.804020 
	C78.989700,62.159641 79.454529,61.479446 80.296707,60.348358 
	C81.475395,59.182751 82.297737,58.484673 83.448074,57.861206 
	C85.610481,57.024971 87.444901,56.114128 89.279320,55.203289 
z"/>
<path fill="#F80F0F" opacity="1.000000" stroke="none" 
	d="
M47.176514,118.127190 
	C47.923725,118.378532 48.722828,118.945763 49.410198,118.832840 
	C57.089458,117.571304 60.218697,119.026321 61.342255,126.628448 
	C62.241467,132.712585 61.971046,139.176270 60.973160,145.267273 
	C60.205261,149.954498 56.679787,151.044540 52.081184,149.489944 
	C49.244831,148.531128 46.411591,147.562546 43.585960,146.572632 
	C31.235744,142.245956 29.113173,134.817474 37.227371,124.404144 
	C37.100914,124.018646 37.043640,124.080765 37.329826,124.204803 
	C37.774498,123.958298 37.932983,123.587761 38.396694,123.080826 
	C39.454567,122.477425 40.207218,122.010406 41.290024,121.592316 
	C43.472290,120.469887 45.324402,119.298538 47.176514,118.127190 
z"/>
<path fill="#F80E0E" opacity="1.000000" stroke="none" 
	d="
M174.311035,55.208687 
	C176.119812,54.938885 178.171051,53.996902 179.685501,54.543133 
	C182.587677,55.589901 186.571228,56.834492 187.650116,59.144218 
	C190.954605,66.218498 191.252914,73.963997 188.782944,81.507996 
	C187.272812,86.120361 184.263916,87.508316 179.832321,85.835548 
	C175.043274,84.027870 170.014206,82.476479 165.731888,79.789902 
	C158.276230,75.112473 157.806854,70.160049 163.200027,63.188702 
	C163.803055,62.409203 164.378235,61.608143 165.315216,60.348251 
	C166.484848,59.185097 167.305603,58.490772 168.455048,57.868462 
	C170.626175,57.029881 172.468597,56.119282 174.311035,55.208687 
z"/>
<path fill="#F80F0F" opacity="1.000000" stroke="none" 
	d="
M89.918259,182.815491 
	C98.465309,180.261261 102.646629,182.275787 104.061615,191.150970 
	C104.974594,196.877380 104.639534,203.021210 103.643517,208.766418 
	C102.803291,213.613037 99.146141,214.866440 94.437691,213.052216 
	C89.825539,211.275085 84.954910,209.826340 80.813103,207.245789 
	C73.341972,202.590881 72.802940,198.332214 77.698814,191.123856 
	C78.241707,190.324524 78.645470,189.430695 79.284851,187.963745 
	C80.687027,186.702240 81.918129,186.057678 83.475372,185.438538 
	C85.840424,184.581131 87.879341,183.698303 89.918259,182.815491 
z"/>
<path fill="#F80F0F" opacity="1.000000" stroke="none" 
	d="
M174.946976,182.823669 
	C183.367477,180.293716 187.638306,182.237411 188.987747,190.746048 
	C189.925659,196.659973 189.597198,202.980576 188.631958,208.924194 
	C187.883972,213.530014 184.194870,214.816605 179.752762,213.141800 
	C175.105316,211.389603 170.204773,209.948608 166.034088,207.370041 
	C158.331711,202.607956 157.810501,198.289124 162.985504,190.808563 
	C163.448105,190.139862 163.799255,189.394073 164.616989,188.195160 
	C166.079346,186.923737 167.126877,186.141235 168.496094,185.405762 
	C170.860870,184.576447 172.903931,183.700058 174.946976,182.823669 
z"/>
<path fill="#43923E" opacity="1.000000" stroke="none" 
	d="
M216.877716,246.226044 
	C213.981583,247.983200 211.320602,249.413742 208.343460,251.008148 
	C203.883453,251.411942 199.739594,251.651871 195.595734,251.891785 
	C195.497498,251.120956 195.399277,250.350113 195.301041,249.579285 
	C199.931610,248.733627 204.562164,247.887985 209.494476,246.987244 
	C209.494476,243.328033 209.494476,239.571228 209.494476,235.814423 
	C209.985611,235.723923 210.476746,235.633438 210.967880,235.542938 
	C212.040909,237.614990 213.113953,239.687042 214.278259,241.935333 
	C216.147888,239.621033 217.949921,237.390442 219.751938,235.159836 
	C220.431625,235.654343 221.111298,236.148849 221.790970,236.643356 
	C220.231613,239.728714 218.672241,242.814072 216.877716,246.226044 
z"/>
<path fill="#4D9446" opacity="1.000000" stroke="none" 
	d="
M174.964157,182.468079 
	C172.903931,183.700058 170.860870,184.576447 168.448242,185.155228 
	C167.792786,184.261566 167.506912,183.665482 167.221039,183.069397 
	C166.903625,179.359467 166.586227,175.649536 166.268814,171.939606 
	C166.991974,171.787628 167.715149,171.635666 168.438309,171.483704 
	C169.490448,173.546936 170.542603,175.610168 171.773636,178.024155 
	C173.497711,175.724106 175.327911,173.282486 177.158112,170.840851 
	C177.847260,171.321869 178.536407,171.802887 179.225555,172.283890 
	C177.810822,175.560089 176.396072,178.836273 174.964157,182.468079 
z"/>
<path fill="#4C9445" opacity="1.000000" stroke="none" 
	d="
M89.934540,182.457870 
	C87.879341,183.698303 85.840424,184.581131 83.430916,185.180481 
	C82.769585,184.284882 82.478844,183.672775 82.188110,183.060654 
	C81.869530,179.351395 81.550949,175.642120 81.232368,171.932861 
	C81.945389,171.786575 82.658417,171.640289 83.371445,171.494003 
	C84.433678,173.563034 85.495918,175.632065 86.655945,177.891571 
	C88.389938,175.663040 90.249535,173.273087 92.109131,170.883133 
	C92.786385,171.350494 93.463638,171.817841 94.140892,172.285187 
	C92.744202,175.556870 91.347511,178.828568 89.934540,182.457870 
z"/>
<path fill="#4B9344" opacity="1.000000" stroke="none" 
	d="
M47.179459,117.775589 
	C45.324402,119.298538 43.472290,120.469887 41.175758,121.415932 
	C40.423046,120.570915 40.114750,119.951195 39.806454,119.331482 
	C37.944794,115.541451 38.022076,111.827644 40.363083,107.000122 
	C41.860767,109.738785 42.885242,111.612129 44.046654,113.735878 
	C46.083015,111.793373 48.120358,109.849930 50.157700,107.906494 
	C50.671925,108.237213 51.186150,108.567940 51.700378,108.898666 
	C50.194386,111.740440 48.688396,114.582214 47.179459,117.775589 
z"/>
<path fill="#4A9343" opacity="1.000000" stroke="none" 
	d="
M132.244843,118.514999 
	C130.274033,119.825905 128.487152,120.729584 126.345314,121.357880 
	C125.606857,120.478378 125.223335,119.874268 124.839821,119.270149 
	C123.116241,115.485832 122.910660,111.767151 125.574242,107.263123 
	C126.968582,109.876915 128.047485,111.899399 129.315536,114.276474 
	C131.106247,111.878723 132.815094,109.590584 134.523941,107.302444 
	C135.252197,107.814339 135.980438,108.326241 136.708679,108.838135 
	C135.282043,111.928009 133.855408,115.017891 132.244843,118.514999 
z"/>
<path fill="#4C9546" opacity="1.000000" stroke="none" 
	d="
M89.503830,54.882835 
	C87.444901,56.114128 85.610481,57.024971 83.393951,57.600754 
	C82.714279,56.857250 82.416740,56.448811 82.119194,56.040371 
	C81.792801,52.263290 81.466400,48.486210 81.140007,44.709129 
	C81.856613,44.502151 82.573227,44.295170 83.289833,44.088192 
	C84.400177,46.181335 85.510521,48.274483 86.599312,50.326984 
	C88.305168,48.312107 90.254326,46.009853 92.203484,43.707603 
	C92.899368,44.169880 93.595253,44.632153 94.291138,45.094429 
	C92.770203,48.250416 91.249268,51.406403 89.503830,54.882835 
z"/>
<path fill="#4C9546" opacity="1.000000" stroke="none" 
	d="
M174.538712,54.890316 
	C172.468597,56.119282 170.626175,57.029881 168.402191,57.612183 
	C167.737076,56.875568 167.453506,56.467239 167.169937,56.058914 
	C166.842529,52.278610 166.515106,48.498306 166.187698,44.718002 
	C166.910019,44.510406 167.632355,44.302814 168.354675,44.095219 
	C169.457138,46.196144 170.559616,48.297070 171.643585,50.362743 
	C173.305023,48.294964 175.208344,45.926136 177.111664,43.557308 
	C177.855194,44.067421 178.598740,44.577534 179.342285,45.087646 
	C177.816986,48.249077 176.291687,51.410511 174.538712,54.890316 
z"/>
<path fill="#489241" opacity="1.000000" stroke="none" 
	d="
M217.126556,117.812660 
	C215.309265,119.323471 213.529388,120.479912 211.378021,121.361946 
	C210.633194,120.486397 210.259842,119.885262 209.886475,119.284126 
	C208.188034,115.482346 207.960831,111.747192 210.636505,107.272278 
	C212.018753,109.897682 213.099762,111.950905 214.354538,114.334190 
	C216.159012,111.875237 217.858948,109.558731 219.558899,107.242233 
	C220.312637,107.813721 221.066391,108.385216 221.820129,108.956703 
	C220.268082,111.790565 218.716034,114.624428 217.126556,117.812660 
z"/>
<path fill="#489444" opacity="1.000000" stroke="none" 
	d="
M132.263641,246.440002 
	C130.109589,247.610916 127.983696,248.332855 125.465164,248.739929 
	C124.853104,247.636642 124.633682,246.848251 124.414261,246.059860 
	C124.258652,242.654617 124.103043,239.249390 123.947433,235.844147 
	C124.613388,235.735779 125.279343,235.627411 125.945297,235.519028 
	C126.946411,237.469482 127.947525,239.419937 129.306992,242.068542 
	C131.041428,239.642532 132.769714,237.225128 134.498001,234.807724 
	C135.222641,235.359360 135.947281,235.911011 136.671936,236.462662 
	C135.211884,239.638779 133.751846,242.814896 132.263641,246.440002 
z"/>
<path fill="#499444" opacity="1.000000" stroke="none" 
	d="
M47.141617,246.488892 
	C45.361778,247.566360 43.594395,248.295242 41.323051,248.750381 
	C40.344593,247.662674 39.870087,246.848709 39.395584,246.034729 
	C39.222912,242.656357 39.050236,239.277985 38.877563,235.899597 
	C39.546803,235.784912 40.216045,235.670212 40.885284,235.555511 
	C41.893860,237.462997 42.902431,239.370499 44.409985,242.221695 
	C46.127975,239.611099 47.702034,237.219223 49.276093,234.827347 
	C50.059704,235.390121 50.843319,235.952896 51.626930,236.515671 
	C50.135979,239.723877 48.645027,242.932083 47.141617,246.488892 
z"/>
<path fill="#5D9E57" opacity="1.000000" stroke="none" 
	d="
M124.376434,119.417114 
	C125.223335,119.874268 125.606857,120.478378 126.041466,121.291595 
	C125.013664,122.260971 123.934761,123.021240 122.556732,123.919571 
	C118.420204,124.057632 114.582817,124.057632 110.745422,124.057632 
	C114.399178,119.362686 119.280304,119.905075 124.376434,119.417114 
z"/>
<path fill="#5E9F59" opacity="1.000000" stroke="none" 
	d="
M209.418518,119.425194 
	C210.259842,119.885262 210.633194,120.486397 211.061798,121.292381 
	C210.033920,122.263290 208.950775,123.029358 207.566757,123.932373 
	C203.438705,124.069321 199.611526,124.069321 195.784363,124.069321 
	C199.442734,119.376587 204.308044,119.868195 209.418518,119.425194 
z"/>
<path fill="#5B9D55" opacity="1.000000" stroke="none" 
	d="
M39.340485,119.460960 
	C40.114750,119.951195 40.423046,120.570915 40.845604,121.367004 
	C40.207218,122.010406 39.454567,122.477425 38.070969,123.072464 
	C37.307896,123.493919 37.175770,123.787346 37.043640,124.080765 
	C37.043640,124.080765 37.100914,124.018646 37.130219,124.049271 
	C33.376091,124.079903 29.592667,124.079903 25.809240,124.079903 
	C25.723333,123.609039 25.637428,123.138184 25.551521,122.667320 
	C29.308056,119.374519 34.217632,119.900986 39.340485,119.460960 
z"/>
<path fill="#62A35F" opacity="1.000000" stroke="none" 
	d="
M166.781860,183.202423 
	C167.506912,183.665482 167.792786,184.261566 168.126526,185.108185 
	C167.126877,186.141235 166.079346,186.923737 164.739349,187.844437 
	C160.731201,187.982635 157.015518,187.982635 153.299820,187.982635 
	C153.247086,187.414505 153.194351,186.846390 153.141602,186.278259 
	C156.945770,183.180054 161.679337,183.382416 166.781860,183.202423 
z"/>
<path fill="#62A15E" opacity="1.000000" stroke="none" 
	d="
M39.169662,246.415375 
	C39.870087,246.848709 40.344593,247.662674 40.962837,248.726822 
	C40.761021,249.327942 40.415470,249.678894 39.963097,250.063858 
	C35.156498,250.760468 30.456726,251.423035 25.756952,252.085602 
	C25.606518,251.140884 25.456083,250.196167 25.305647,249.251450 
	C29.851679,248.432968 34.397709,247.614502 39.169662,246.415375 
z"/>
<path fill="#5FA15B" opacity="1.000000" stroke="none" 
	d="
M81.754005,183.203552 
	C82.478844,183.672775 82.769585,184.284882 83.104782,185.155060 
	C81.918129,186.057678 80.687027,186.702240 79.205307,187.598007 
	C75.405228,187.849213 71.855774,187.849213 68.306328,187.849213 
	C68.248161,187.330109 68.189995,186.810989 68.131821,186.291885 
	C71.921410,183.160950 76.671227,183.432922 81.754005,183.203552 
z"/>
<path fill="#61A25E" opacity="1.000000" stroke="none" 
	d="
M251.847260,183.217529 
	C252.569611,183.578461 252.847122,184.067398 253.250824,184.817917 
	C252.254501,185.966187 251.131973,186.852875 249.733734,187.865158 
	C245.759537,187.990738 242.061035,187.990738 238.362534,187.990738 
	C238.313766,187.423828 238.264984,186.856918 238.216202,186.290009 
	C242.015259,183.174286 246.746231,183.393738 251.847260,183.217529 
z"/>
<path fill="#60A25D" opacity="1.000000" stroke="none" 
	d="
M81.660568,56.063637 
	C82.416740,56.448811 82.714279,56.857250 83.065948,57.526142 
	C82.297737,58.484673 81.475395,59.182751 80.357666,60.010986 
	C76.094101,60.141136 72.125916,60.141136 66.799309,60.141136 
	C71.779289,55.754162 76.535172,56.084427 81.660568,56.063637 
z"/>
<path fill="#5C9F58" opacity="1.000000" stroke="none" 
	d="
M124.197449,246.449036 
	C124.633682,246.848251 124.853104,247.636642 125.109863,248.741318 
	C124.627640,249.673111 124.108078,250.288635 123.311646,251.028900 
	C118.918343,251.354843 114.801926,251.556015 110.685509,251.757187 
	C110.584396,250.922668 110.483292,250.088165 110.382179,249.253647 
	C114.915001,248.448517 119.447815,247.643372 124.197449,246.449036 
z"/>
<path fill="#5FA15B" opacity="1.000000" stroke="none" 
	d="
M166.707703,56.079483 
	C167.453506,56.467239 167.737076,56.875568 168.073486,57.540169 
	C167.305603,58.490772 166.484848,59.185097 165.370026,60.009277 
	C161.119202,60.139133 157.162460,60.139133 151.822861,60.139133 
	C156.847885,55.778259 161.584793,56.081310 166.707703,56.079483 
z"/>
<path fill="#5FA15B" opacity="1.000000" stroke="none" 
	d="
M251.777283,56.093277 
	C252.511215,56.488728 252.782181,56.896481 253.114624,57.554676 
	C252.342987,58.496296 251.509872,59.187473 250.381958,60.010094 
	C246.137207,60.141541 242.187256,60.141541 236.838959,60.141541 
	C241.918640,55.877048 246.626053,56.027164 251.777283,56.093277 
z"/>
<path fill="#FEF1FC" opacity="1.000000" stroke="none" 
	d="
M4.833686,55.040222 
	C4.742159,54.649860 5.043857,54.259975 5.709305,53.946251 
	C5.791007,54.361839 5.508959,54.701271 4.833686,55.040222 
z"/>
<path fill="#FEF1FC" opacity="1.000000" stroke="none" 
	d="
M37.329826,124.204803 
	C37.175770,123.787346 37.307896,123.493919 37.765747,123.208855 
	C37.932983,123.587761 37.774498,123.958298 37.329826,124.204803 
z"/>
</svg>